<?xml version="1.0" encoding="utf-8"?>
<!-- Generator: Adobe Illustrator 21.1.0, SVG Export Plug-In . SVG Version: 6.00 Build 0)  -->
<svg version="1.1" id="Layer_1" xmlns="http://www.w3.org/2000/svg" xmlns:xlink="http://www.w3.org/1999/xlink" x="0px" y="0px"
	 viewBox="0 0 299.7 130.4" enable-background="new 0 0 299.7 130.4" xml:space="preserve">
<path id="path265" fill="#FFFFFF" d="M98.1,0C88.8,0,82,1.3,76.7,4.8c-5.5,3.5-8,9.5-8,18.8v20.2c0,9.4,2.7,15.7,8,18.8
	c4.3,3,11.2,4.4,21.4,4.4c10.1,0,17.3-1.3,21.4-4.2c5.3-3.3,8-9.9,8-19V23.6c0-8.9-2.6-15.2-8-18.8C115.1,1.7,107.7,0,98.1,0z
	 M2.4,1.2v64.3h34.1c16.8,0,23.1-7,23.1-25.6V25.8c0-17.7-7.1-24.6-25.3-24.6H2.4z M138,1.2v64.3H179V54.8h-26.5V1.2H138z
	 M186.9,1.2v64.3h30c9.3,0,13.1-1.8,14.9-3.1c3.1-2.1,7-6.8,7-14.1c0-8.7-3-17.3-17.2-17c11.3-1,13.8-6.6,13.8-14.6
	c0-7.1-2.9-10.7-6.1-12.7c-2.7-1.7-6-2.9-12.8-2.9H186.9z M240.2,1.2c2.7,4.9,21.6,40.7,21.6,40.7v23.6h15.4c0-3.2,0-23.6,0-23.6
	c0,0,19.5-35.8,22.3-40.7h-13.6l-16,29l-15.3-29H240.2z M94.2,10.2c1.2-0.1,2.5,0,3.9,0c11.1,0,14.9,2.3,14.9,13.4V43
	c0,11.4-3.9,14.1-14.9,14.1C87.1,57,83.2,54.4,83.2,43V23.6C83.2,13.9,86.1,10.8,94.2,10.2z M201.2,10.4h14.1c4.8,0,7.8,3.9,7.8,9.2
	c0,8.1-3.7,8.3-14.8,8.7v7.5c9.8,0,17.7-0.8,17.7,9.5c0,5.2-3.2,11-11.7,11h-13.1V56V10.4z M16.8,10.5h17.5c5,0,11.1,2.9,11.1,13.4
	v17.5c0,11.3-6.1,14.1-11.1,14.1H16.8V10.5z M293.5,53.3c-3.3,0-6.1,2.6-6.1,6.1c0,3.5,2.8,6.1,6.1,6.1c3.3,0,6.1-2.6,6.1-6.1
	C299.7,55.9,296.8,53.3,293.5,53.3z M293.5,54.3c2.8,0,4.9,2.2,4.9,5.1c0,3-2.1,5.1-4.9,5.1c-2.8,0-4.9-2.1-4.9-5.1
	C288.6,56.5,290.7,54.3,293.5,54.3z M291.2,55.9V63h1.2v-3.1h1.2l1.9,3.1h1l-1.9-3.1c1-0.1,1.7-0.8,1.7-2c0-1.4-0.7-2-2.4-2H291.2z
	 M292.3,56.9h1.3c1.3,0,1.5,0.4,1.5,1c0,0.8-0.4,1.2-1.7,1.2h-1.2V56.9z M164.3,80c-6.3,0-10.8,1-14.3,3.6
	c-3.6,2.7-5.4,7.1-5.4,14.1v15.3c0,7.1,1.9,11.7,5.4,14.1c2.9,2.3,7.5,3.4,14.3,3.4c6.7,0,11.5-1,14.3-3.2c3.6-2.5,5.4-7.4,5.4-14.3
	V97.6c0-6.7-1.9-11.3-5.4-14.1C175.7,81.2,170.7,80,164.3,80z M231.4,81v2.4h3.1v8.5h2.4v-8.5h3.1V81H231.4z M241.1,81v10.9h2.2
	v-7.1l2.6,5.4h1l2.7-6.1l0.2,7.8h2V81h-2.7l-2.7,5.6l-2.5-5.6H241.1z M88.3,81.2V130h10V98.3l11.1,23.8h4.9l12.4-27l0.3,35h9.5V81.2
	h-12.4l-12.4,25.6l-11.4-25.6H88.3z M44.5,81.3V92h13.8v38.2h10.9V92h13.6V81.3H44.5z M17.5,81.5L0,130h10l4.1-10.9h18.3l4.1,10.9
	h9.8L29.2,81.5H17.5z M203.6,81.7c-8.7,0-12.1,3.9-12.1,10.5v7.1c0,6.6,2.7,8.8,10,9.8l10.4,1.5c2.5,0.4,3.2,1.2,3.2,3.4v4.6
	c0,1.9-0.8,2.9-2.7,2.9h-20.7v5.1c1.8,2.1,5.7,2.7,8.7,2.7h12.8c8.2,0,11-3.4,11-10.4v-7.3c0-6.9-2.1-9-8.5-9.8l-12-1.7
	c-2-0.3-3.2-1-3.2-3.2v-4.2c0-2.3,0.5-3.1,2.6-3.1h19.5v-5.3c-1.6-2-5.8-2.7-8.7-2.7H203.6z M161.8,87.6c0.8-0.1,1.6,0,2.6,0
	c7.4,0,10,1.8,10,10.2v14.4c0,8.6-2.6,10.5-10,10.5c-7.4,0-10-2-10-10.5V97.8C154.3,90.5,156.3,88.1,161.8,87.6z M23.3,94.9
	l5.1,13.6l-10.5,0.2L23.3,94.9z"/>
</svg>
