<svg xmlns="http://www.w3.org/2000/svg" width="61" height="12" viewBox="0 0 61 12">
  <defs>
    <style>
      .cls-1 {
        fill: #fff;
        fill-rule: evenodd;
      }
    </style>
  </defs>
  <path id="IMAX" class="cls-1" d="M829.79,737.138l-3.441,7.1c-0.486-1-3.453-7.1-3.453-7.1h-5.765V749h3.212v-8.586H821c0.167,0.361,4.014,8.586,4.014,8.586h2.658s3.848-8.225,4.016-8.586h0.656V749h3.212V737.138H829.79ZM811,749h3.614V737.138H811V749h0Zm25.2,0h3.819s0.836-1.71.983-2.013h7.21L849.192,749h3.814l-5.762-11.858h-5.281L836.2,749h0Zm8.591-9.173c0.151,0.308,1.812,3.734,2.185,4.5h-4.738l2.184-4.5h0.369Zm23.5-2.7H864.6l-3.1,3.863c-0.42-.532-3.044-3.863-3.044-3.863H854.04l4.486,5.567L853.188,749H857.9l3.632-4.321L865.111,749h4.716s-5-5.9-5.34-6.306l4.487-5.567h-0.69Zm2.426,0.1a1.13,1.13,0,1,0,1.08,1.128,1.107,1.107,0,0,0-1.08-1.128h0Zm0,2.475A1.348,1.348,0,1,1,872,738.352a1.321,1.321,0,0,1-1.289,1.347h0Zm-0.272-1.112v0.485h-0.27v-1.466h0.716a0.363,0.363,0,0,1,.425.44c0,0.217-.011.375-0.249,0.412v0.008c0.191,0.018.238,0.125,0.238,0.332v0.274h-0.269V738.8a0.177,0.177,0,0,0-.178-0.211h-0.413Zm0.355-.24c0.2,0,.246-0.042.246-0.257s-0.035-.244-0.227-0.244h-0.374v0.5h0.355Z" transform="translate(-811 -737)"/>
</svg>
