<?xml version="1.0" encoding="utf-8"?>
<!-- Generator: Adobe Illustrator 21.1.0, SVG Export Plug-In . SVG Version: 6.00 Build 0)  -->
<svg version="1.1" id="Layer_1" xmlns="http://www.w3.org/2000/svg" xmlns:xlink="http://www.w3.org/1999/xlink" x="0px" y="0px"
	 viewBox="0 0 960 560" style="enable-background:new 0 0 960 560;" xml:space="preserve">
<style type="text/css">
	.st0{fill:#FFFFFF;}
</style>
<g>
	<polygon class="st0" points="271.2,344.5 184.7,344.5 217.6,177.5 265.1,177.4 238.6,312.5 277.2,312.5 	"/>
	<path class="st0" d="M366.8,344.5l-0.4-19.7h-33.9l-8.4,19.7h-45.3l69.4-137.2h50.3l16,137.2H366.8z M365.4,258
		c0-5,0.2-10.2,0.6-14.4h-0.4c-1.4,5.2-3.4,11.4-6.2,17.7l-16,37.5H366L365.4,258z"/>
	<path class="st0" d="M520.4,241.4c-5.6-3.2-13-4.8-20.1-4.8c-9.2,0-15,4.2-15,10.4c0,13,37.3,14.2,37.3,46.3
		c0,28.9-23.1,53.6-60.6,53.6c-17.4,0-30.9-3-41.9-8.6l17-31.5c7.2,4,15.6,6,22.9,6c9.8,0,14-4.6,14-9c0-13.2-35.5-15.8-35.5-46.9
		c0-28.5,22.9-52.1,59.6-52.1c15,0,27.3,2.6,37.5,8.4L520.4,241.4z"/>
	<polygon class="st0" points="626.9,238.2 596.7,238.2 592.4,260.4 617.7,260.4 611.9,290.5 586.6,290.5 582,313.6 612.1,313.6 
		606.1,344.5 529.7,344.5 556.5,207.3 632.8,207.3 	"/>
	<path class="st0" d="M775.3,217.5c0-27.4-22.6-43-62.4-43c-21.1,0-39.8,3.6-55.6,10l-31.3,160h46.9l13.4-68.7
		c6.6,4.6,10.4,12.4,12.1,20.9l9.5,47.8h51l-14.6-49.1c-2.4-8-6.8-17-12.1-23.3v-0.5C763,259.8,775.3,240.6,775.3,217.5z
		 M723.4,240.8c-5.1,9.7-13.8,16.5-25.5,16.5c-3.2,0-5.8-0.5-7.8-1l10.4-53.7c2.4-0.7,5.8-1.2,9.2-1.2c12.9,0,18.7,5.8,18.7,17.7
		C728.5,226.3,726.5,234.5,723.4,240.8z"/>
</g>
</svg>
